<svg xmlns:xlink="http://www.w3.org/1999/xlink" width="24" height="24" viewBox="0 0 24 24" fill="none" xmlns="http://www.w3.org/2000/svg" class="thumb thumb-down-filled svg-icon svg-icon-thumb-thumb-down-filled"><path fill-rule="evenodd" clip-rule="evenodd" d="M10.593 17.7442L10.687 18.4959C10.8658 19.9265 12.0819 21 13.5236 21C13.7867 21 14 20.7867 14 20.5236V17.2868C14 17.0994 14.0527 16.9157 14.152 16.7568L16.0926 13.6519C16.3548 13.2323 16.7633 12.9248 17.2391 12.7888L19.2747 12.2072C19.704 12.0846 20 11.6922 20 11.2457V5.68387C20 5.30618 19.6938 5 19.3161 5C18.126 5 16.9565 4.68942 15.9232 4.09895L15.75 4C14.6032 3.34469 13.3053 3 11.9844 3H11H8H7.5C6.67157 3 6 3.67157 6 4.5C6 4.88418 6.14443 5.23462 6.38195 5.5H6C5.17157 5.5 4.5 6.17157 4.5 7C4.5 7.53991 4.78525 8.0132 5.21328 8.27737C4.522 8.41118 4 9.01963 4 9.75C4 10.5784 4.67157 11.25 5.5 11.25H5.67055C5.26638 11.5187 5 11.9783 5 12.5C5 13.3284 5.67157 14 6.5 14H10.875L10.593 16.2558C10.5312 16.75 10.5312 17.25 10.593 17.7442Z" fill="#FFFFFF"></path></svg>